# xmcd
#
# Track frame offsets: 
#        182
#        11935
#        26152
#        36035
#        52060
#        64627
#        75147
#        87955
#        102890
#        121830
#
# Disc length: 1833 seconds
#
# Revision: 0
# Processed by: cddbd v1.5.1PL0 Copyright (c) Steve Scherf et al.
# Submitted via: ExactAudioCopy v0.95a5
#
DISCID=7407270a
DTITLE=Memphis Slim - Alone With the Blues
DYEAR=1993
DGENRE=Blues
TTITLE0=Four O'clock Blues
TTITLE1=Trouble in Mind
TTITLE2=Roll and Tumble
TTITLE3=Cow Cow Blues
TTITLE4=Crowing Rooster
TTITLE5=The Bells
TTITLE6=Lord Have Mercy on Me
TTITLE7=My Baby Don't Love Me No More
TTITLE8=Pinetop Boogie
TTITLE9=Boogie After Midnight
EXTD=
EXTT0=
EXTT1=
EXTT2=
EXTT3=
EXTT4=
EXTT5=
EXTT6=
EXTT7=
EXTT8=
EXTT9=
PLAYORDER=
